<svg id="Layer_1" data-name="Layer 1" xmlns="http://www.w3.org/2000/svg" viewBox="0 0 644 80.72"><defs><style>.cls-1{fill:#8e9fa9;}.cls-2{fill:#ef65a4;}</style></defs><title>AS_Logo_Horz</title><g id="DWr4X0"><path class="cls-1" d="M199.12,70.91c.71-2.22,1.44-4.43,2.13-6.67q4.32-14.14,8.6-28.31A1.08,1.08,0,0,1,211.1,35c3,0,6.05,0,9.08,0,.5,0,.81.06,1,.63q5.28,17.49,10.61,35a4.72,4.72,0,0,1,.11.52H228c-1.16,0-2.32,0-3.48,0a.74.74,0,0,1-.86-.66q-.87-3.25-1.86-6.48c-.08-.28-.46-.68-.7-.68-3.92,0-7.85,0-11.82,0L207,71.11h-7.87ZM215.5,41.66l-.2,0-4.14,14.71h8.49Z"/><path class="cls-1" d="M253.06,47.93l-5.83,23.13H239q-4.48-18-9-36h7.72l5.52,26h.16c.1-.31.22-.62.3-.95q3-12.06,6-24.14c.18-.73.45-1,1.2-1,1.74,0,3.48,0,5.33,0l6.55,26H263q2.75-13,5.51-26H276c-3,12-6,24-9,36h-7.85q-2.91-11.51-5.83-23.1Z"/><path class="cls-1" d="M384.64,48.69V71h-7.09V35c2,0,4,.15,5.91,0,1.75-.17,2.48.51,3.15,2.06,2.76,6.37,5.67,12.67,8.61,19.18.2-.42.36-.71.49-1,2.9-6.41,5.81-12.82,8.68-19.25a1.38,1.38,0,0,1,1.51-1c2.31.06,4.62,0,7,0V71h-7.22V48.63l-.19,0c-.13.28-.27.55-.39.83-2.29,5.34-4.59,10.69-6.85,16a1.14,1.14,0,0,1-1.26.85,32.89,32.89,0,0,0-3.58,0A1.25,1.25,0,0,1,392,65.4c-2.23-5.3-4.5-10.59-6.77-15.88-.12-.29-.26-.57-.39-.86Z"/><path class="cls-1" d="M342.63,53.05c0-3.41,0-6.82,0-10.24a15.23,15.23,0,0,1,.22-2.87,5.49,5.49,0,0,1,5.29-4.78C349.59,35,351,35,352.49,35c4.09,0,8.18,0,12.26.16a5.28,5.28,0,0,1,5.37,5.31c.16,8.23.22,16.48,0,24.71-.08,3.78-2.31,5.75-6.1,5.85q-7.57.2-15.16,0c-3.92-.1-6.07-2.29-6.19-6.21s0-7.86,0-11.79Zm7.42,0V63c0,1.1.2,1.3,1.3,1.3h10.24c.88,0,1.28-.31,1.28-1.24q0-10,0-20c0-.92-.37-1.25-1.26-1.25-3.41,0-6.83,0-10.24,0-1.17,0-1.32.16-1.32,1.36Z"/><path class="cls-1" d="M328.6,46.31c0-1.16,0-2.25,0-3.34,0-.84-.29-1.25-1.18-1.25-2.87,0-5.73,0-8.6,0-.84,0-1.16.38-1.16,1.17,0,1.22,0,2.44,0,3.67a1.59,1.59,0,0,0,1.4,1.77c3.21.68,6.42,1.34,9.61,2.11A22.83,22.83,0,0,1,333,51.91a5.59,5.59,0,0,1,3.33,5.16c.08,2.58.11,5.16,0,7.73-.17,4-2.3,6.16-6.26,6.26-4.53.12-9.08.11-13.61,0-3.93-.09-6-2.22-6.27-6.14-.11-1.82,0-3.65,0-5.58h7.17c0,1.35,0,2.59,0,3.84,0,.86.3,1.22,1.18,1.22q4.63,0,9.28,0c.87,0,1.21-.36,1.18-1.22,0-1.32,0-2.64,0-4a1.6,1.6,0,0,0-1.44-1.83c-3.24-.7-6.48-1.38-9.7-2.14a22.18,22.18,0,0,1-3.76-1.18,5.71,5.71,0,0,1-3.78-5.17,67.94,67.94,0,0,1,.13-8.68,5.27,5.27,0,0,1,5.31-5C319.2,35,322.65,35,326.1,35c1.31,0,2.64,0,3.95.12,3.39.31,5.37,2.22,5.65,5.61.16,1.82,0,3.66,0,5.56Z"/><path class="cls-1" d="M288.35,41.84v7.42h13.52V56h-13.5v8.3h16.72V71H280.94v-36H305.1v6.76Z"/><path class="cls-1" d="M442.19,56H428.67v8.26h16.75v6.77H421.23v-36h24.16v6.74H428.68v7.48h13.51Z"/></g><g id="CHHV8x"><path class="cls-1" d="M461.68,59.29a11.74,11.74,0,0,1,1.31-.17h6c0,1.33,0,2.57,0,3.81,0,.94.36,1.25,1.26,1.24q4.59,0,9.18,0c.86,0,1.23-.33,1.2-1.2,0-1.32,0-2.64,0-4a1.61,1.61,0,0,0-1.42-1.85c-3.24-.7-6.48-1.38-9.7-2.13a23.12,23.12,0,0,1-3.76-1.18A5.72,5.72,0,0,1,462,48.68a66.16,66.16,0,0,1,.13-8.68,5.25,5.25,0,0,1,5.3-5c3.37-.2,6.76-.14,10.14-.16a41.08,41.08,0,0,1,4.15.12c3.36.3,5.31,2.14,5.64,5.52.17,1.84,0,3.72,0,5.64h-7.13c0-1.08,0-2.17,0-3.25s-.19-1.32-1.28-1.32c-2.8,0-5.6,0-8.4,0-.94,0-1.27.41-1.26,1.28q0,1.78,0,3.57a1.58,1.58,0,0,0,1.41,1.76c3.49.75,7,1.48,10.45,2.32a17.28,17.28,0,0,1,3.7,1.36,5.56,5.56,0,0,1,3.13,5c.09,2.63.11,5.28,0,7.92-.15,3.66-1.94,5.85-5.59,6-5.1.26-10.24.19-15.34-.06-3.14-.16-4.9-2.35-5.18-5.51,0-.41-.12-.82-.18-1.23Z"/><path class="cls-1" d="M643.25,46.1h-7.06c0-1.14,0-2.22,0-3.31,0-.87-.29-1.3-1.23-1.29-2.84,0-5.67,0-8.5,0-.88,0-1.23.37-1.22,1.21,0,1.22,0,2.44,0,3.67a1.55,1.55,0,0,0,1.35,1.71c3.23.69,6.48,1.35,9.7,2.14a22.41,22.41,0,0,1,4.44,1.53,5.5,5.5,0,0,1,3.2,5c.07,2.76.1,5.54,0,8.3-.15,3.2-2,5.41-5.2,5.56-5.23.24-10.48.22-15.72,0-2.9-.13-4.66-2-5-4.86a53.84,53.84,0,0,1-.05-6.61H625v3.62c0,1.23.11,1.35,1.32,1.35,3,0,6,0,9,0,1.21,0,1.32-.13,1.33-1.35V59c0-1.26-.23-1.59-1.47-1.88-3.23-.73-6.48-1.38-9.7-2.14a22.21,22.21,0,0,1-3.76-1.19,5.7,5.7,0,0,1-3.73-5.11,66,66,0,0,1,.12-8.67c.27-3.07,2.27-4.88,5.35-5.1,2.5-.18,5-.15,7.53-.15,2.22,0,4.45,0,6.66.12,3.32.25,5.18,1.9,5.61,5.18A46.07,46.07,0,0,1,643.25,46.1Z"/><path class="cls-1" d="M549.52,70.88c-2.58,0-5.08,0-7.59,0-.23,0-.56-.36-.64-.62-.65-2.15-1.24-4.33-1.9-6.47a1.15,1.15,0,0,0-.79-.69c-3.8,0-7.6,0-11.4,0a1.52,1.52,0,0,0-.35.07q-1.1,3.79-2.2,7.7h-7.79c.09-.34.17-.64.26-.94q5.19-17.07,10.36-34.15a1.13,1.13,0,0,1,1.33-1c3,0,6,0,9,0a.92.92,0,0,1,1.06.8q5.24,17.26,10.5,34.51C549.42,70.32,549.45,70.57,549.52,70.88ZM537.3,56.17l-4.16-14.73h-.2l-4.15,14.73Z"/><path class="cls-1" d="M614.64,34.79,608.11,43c-1.38,1.74-2.73,3.5-4.16,5.21a1.25,1.25,0,0,0-.16,1.67c3.62,6.6,7.19,13.22,10.78,19.84.18.33.35.67.6,1.14-2.75,0-5.37,0-8,0-.25,0-.57-.44-.73-.75-2.53-4.59-5-9.2-7.54-13.8-.15-.29-.31-.56-.51-.92a4.27,4.27,0,0,0-.48.45c-1.47,1.84-2.94,3.67-4.37,5.54a2.38,2.38,0,0,0-.43,1.3c0,2.7,0,5.4,0,8.15h-7.26V34.87h7.24V51.36l.18.1.67-.85c3.8-5,7.6-10,11.37-15a1.84,1.84,0,0,1,1.69-.82C609.44,34.82,611.91,34.79,614.64,34.79Z"/><path class="cls-1" d="M579.14,47.86h-7.35V43.33c0-1.61-.1-1.71-1.67-1.71h-8.5c-1.25,0-1.38.15-1.38,1.4q0,9.85,0,19.71c0,1.16.18,1.35,1.34,1.36h8.88c1.09,0,1.31-.22,1.32-1.31,0-1.63,0-3.26,0-5h7.5c-.11,2.78,0,5.52-.37,8.22a4.94,4.94,0,0,1-4.85,4.59c-5.33.21-10.68.24-16,0-3.09-.13-4.87-2.31-5.16-5.41-.08-.8-.09-1.61-.09-2.42q0-10.09,0-20.19a16.38,16.38,0,0,1,.24-3,5.48,5.48,0,0,1,5.23-4.72,41.1,41.1,0,0,1,4.15-.14c3.6,0,7.22-.09,10.81.12s5.58,2.15,5.86,5.81C579.29,43.06,579.14,45.42,579.14,47.86Z"/><path class="cls-1" d="M501.56,70.82V41.52h-9.72V34.84h26.84v6.63H509V70.82Z"/></g><path class="cls-2" d="M103.77,0l-2.34,5.38,48.84,22.47H21.05L69.89,5.38,67.54,0,0,27.85V53.26A27.46,27.46,0,0,0,27.46,80.72H51.84A27.46,27.46,0,0,0,79.29,53.26V38.84H92V53.26a27.47,27.47,0,0,0,27.46,27.46h24.38a27.47,27.47,0,0,0,27.46-27.46V27.85ZM51.84,75.93H27.46a21.52,21.52,0,0,1-14.74-5.84H66.58A21.54,21.54,0,0,1,51.84,75.93ZM71,64.21H8.27a21.53,21.53,0,0,1-2-6H73.07A21.55,21.55,0,0,1,71,64.21Zm2.4-11.87H5.87v-6H73.42Zm0-12.41v.55H5.87V34.81H73.42Zm70.44,36H119.48a21.52,21.52,0,0,1-14.74-5.84H158.6A21.54,21.54,0,0,1,143.86,75.93ZM163,64.21H100.31a21.56,21.56,0,0,1-2.06-6h66.84A21.55,21.55,0,0,1,163,64.21Zm2.4-11.87H97.9v-6h67.54Zm0-11.86H97.9V34.81h67.54Z"/></svg>