<svg width="172" height="81" viewBox="0 0 172 81" fill="none" xmlns="http://www.w3.org/2000/svg">
<path d="M103.77 0L101.43 5.38L150.27 27.85H21.05L69.89 5.38L67.54 0L0 27.85V53.26C0 60.5428 2.8931 67.5274 8.04285 72.6772C13.1926 77.8269 20.1772 80.72 27.46 80.72H51.84C59.1211 80.7173 66.1031 77.8231 71.2507 72.6736C76.3983 67.5242 79.29 60.5411 79.29 53.26V38.84H92V53.26C92.0027 60.542 94.8966 67.5251 100.046 72.6742C105.195 77.8234 112.178 80.7174 119.46 80.72H143.84C151.122 80.7174 158.105 77.8234 163.254 72.6742C168.403 67.5251 171.297 60.542 171.3 53.26V27.85L103.77 0ZM51.84 75.93H27.46C21.9825 75.9302 16.711 73.8416 12.72 70.09H66.58C62.5879 73.8399 57.3171 75.9282 51.84 75.93V75.93ZM71 64.21H8.27C7.31161 62.3194 6.63767 60.2975 6.27 58.21H73.07C72.6799 60.3012 71.9824 62.3231 71 64.21ZM73.4 52.34H5.87V46.34H73.42L73.4 52.34ZM73.4 39.93V40.48H5.87V34.81H73.42L73.4 39.93ZM143.84 75.93H119.48C114.002 75.9302 108.731 73.8416 104.74 70.09H158.6C154.608 73.8399 149.337 75.9282 143.86 75.93H143.84ZM163 64.21H100.31C99.3312 62.3225 98.6371 60.3006 98.25 58.21H165.09C164.694 60.3023 163.989 62.3242 163 64.21V64.21ZM165.4 52.34H97.9V46.34H165.44L165.4 52.34ZM165.4 40.48H97.9V34.81H165.44L165.4 40.48Z" fill="#EF65A4"/>
</svg>
